<svg width="30" height="30" viewBox="0 0 30 30" fill="none" xmlns="http://www.w3.org/2000/svg">
<g clip-path="url(#clip0_1_6433)">
<path d="M14.8037 18.9688C16.8024 18.9688 18.4287 17.3425 18.4287 15.3438C18.4287 13.345 16.8024 11.7188 14.8037 11.7188C12.805 11.7188 11.1787 13.345 11.1787 15.3438C11.1787 17.3425 12.805 18.9688 14.8037 18.9688ZM14.8037 12.625C16.3031 12.625 17.5225 13.8444 17.5225 15.3438C17.5225 16.8431 16.3031 18.0625 14.8037 18.0625C13.3043 18.0625 12.085 16.8431 12.085 15.3438C12.085 13.8444 13.3043 12.625 14.8037 12.625Z" fill="#F4D059"/>
<path d="M14.8037 17.1562C15.8033 17.1562 16.6162 16.3433 16.6162 15.3438C16.6162 14.3442 15.8033 13.5312 14.8037 13.5312C13.8041 13.5312 12.9912 14.3442 12.9912 15.3438C12.9912 16.3433 13.8041 17.1562 14.8037 17.1562ZM14.8037 14.4375C15.3035 14.4375 15.71 14.844 15.71 15.3438C15.71 15.8435 15.3035 16.25 14.8037 16.25C14.3039 16.25 13.8975 15.8435 13.8975 15.3438C13.8975 14.844 14.3039 14.4375 14.8037 14.4375Z" fill="#F4D059"/>
<path d="M11.8267 20.697L12.6187 20.3182C12.6894 20.3494 12.7606 20.3793 12.8322 20.407L13.1235 21.2344H16.4834L16.7757 20.407C16.8469 20.3789 16.918 20.3494 16.9891 20.3182L17.7812 20.697L20.1574 18.3208L19.7786 17.5287C19.8098 17.458 19.8397 17.3869 19.8674 17.3153L20.6943 17.0239V13.664L19.8669 13.3718C19.8388 13.3006 19.8094 13.2295 19.7781 13.1583L20.1569 12.3663L17.7807 9.99008L16.9887 10.3689C16.918 10.3376 16.8469 10.3077 16.7753 10.2801L16.4839 9.45312H13.124L12.8317 10.2805C12.7606 10.3086 12.6894 10.3381 12.6183 10.3693L11.8262 9.99053L9.45004 12.3667L9.82885 13.1588C9.79759 13.2295 9.76768 13.3006 9.74004 13.3722L8.91309 13.6636V17.0235L9.74049 17.3158C9.76859 17.3869 9.79804 17.458 9.8293 17.5292L9.45049 18.3212L11.8267 20.697ZM9.81934 16.3823V14.3047L10.4501 14.0822L10.5212 13.8747C10.5806 13.7012 10.6535 13.5263 10.7378 13.355L10.8343 13.1579L10.5452 12.5534L12.0143 11.0844L12.6187 11.3735L12.8159 11.277C12.9871 11.1927 13.162 11.1202 13.3356 11.0604L13.5431 10.9892L13.7651 10.3594H15.8427L16.0652 10.9901L16.2727 11.0613C16.4463 11.1206 16.6212 11.1936 16.7925 11.2779L16.9896 11.3744L17.5941 11.0853L19.0631 12.5543L18.774 13.1588L18.8705 13.3559C18.9548 13.5272 19.0273 13.7021 19.0871 13.8756L19.1582 14.0832L19.7881 14.3052V16.3828L19.1573 16.6053L19.0862 16.8128C19.0268 16.9863 18.9539 17.1612 18.8696 17.3325L18.7731 17.5296L19.0622 18.1341L17.5931 19.6031L16.9887 19.314L16.7916 19.4105C16.6203 19.4948 16.4454 19.5673 16.2718 19.6271L16.0643 19.6983L15.8423 20.3281H13.7647L13.5422 19.6974L13.3347 19.6262C13.1611 19.5669 12.9862 19.4939 12.8149 19.4096L12.6178 19.3131L12.0134 19.6022L10.5443 18.1332L10.8334 17.5287L10.7369 17.3316C10.6526 17.1603 10.5801 16.9854 10.5203 16.8119L10.4492 16.6043L9.81934 16.3823Z" fill="#F4D059"/>
<path d="M6.64746 22.1406H2.11621C1.36674 22.1406 0.756836 22.7505 0.756836 23.5V28.0312C0.756836 28.7807 1.36674 29.3906 2.11621 29.3906H6.64746C7.39693 29.3906 8.00684 28.7807 8.00684 28.0312V23.5C8.00684 22.7505 7.39693 22.1406 6.64746 22.1406ZM7.10059 28.0312C7.10059 28.2809 6.89713 28.4844 6.64746 28.4844H2.11621C1.86654 28.4844 1.66309 28.2809 1.66309 28.0312V23.5C1.66309 23.2503 1.86654 23.0469 2.11621 23.0469H6.64746C6.89713 23.0469 7.10059 23.2503 7.10059 23.5V28.0312Z" fill="#F4D059"/>
<path d="M27.4912 11.7188H22.96C22.2105 11.7188 21.6006 12.3287 21.6006 13.0781V17.6094C21.6006 18.3588 22.2105 18.9688 22.96 18.9688H27.4912C28.2407 18.9688 28.8506 18.3588 28.8506 17.6094V13.0781C28.8506 12.3287 28.2407 11.7188 27.4912 11.7188ZM27.9443 17.6094C27.9443 17.859 27.7409 18.0625 27.4912 18.0625H22.96C22.7103 18.0625 22.5068 17.859 22.5068 17.6094V13.0781C22.5068 12.8285 22.7103 12.625 22.96 12.625H27.4912C27.7409 12.625 27.9443 12.8285 27.9443 13.0781V17.6094Z" fill="#F4D059"/>
<path d="M4.83496 8.54688H9.36621C10.1157 8.54688 10.7256 7.93697 10.7256 7.1875V2.65625C10.7256 1.90678 10.1157 1.29688 9.36621 1.29688H4.83496C4.08549 1.29688 3.47559 1.90678 3.47559 2.65625V7.1875C3.47559 7.93697 4.08549 8.54688 4.83496 8.54688ZM4.38184 2.65625C4.38184 2.40658 4.58529 2.20312 4.83496 2.20312H9.36621C9.61588 2.20312 9.81934 2.40658 9.81934 2.65625V7.1875C9.81934 7.43717 9.61588 7.64062 9.36621 7.64062H4.83496C4.58529 7.64062 4.38184 7.43717 4.38184 7.1875V2.65625Z" fill="#F4D059"/>
<path d="M3.47563 26.4843L2.88974 25.8984L2.24902 26.5392L3.47563 27.7658L6.51474 24.7267L5.87402 24.0859L3.47563 26.4843Z" fill="#F4D059"/>
<path d="M9.23349 3.88291L8.59277 3.24219L6.19438 5.64058L5.60849 5.05469L4.96777 5.69541L6.19438 6.92202L9.23349 3.88291Z" fill="#F4D059"/>
<path d="M24.3194 16.0625L23.7335 15.4766L23.0928 16.1173L24.3194 17.3439L27.3585 14.3048L26.7178 13.6641L24.3194 16.0625Z" fill="#F4D059"/>
<path d="M21.49 21.2492L21.7098 22.1282L24.2854 21.4843C22.2051 24.707 18.6634 26.6731 14.8033 26.6731C13.1453 26.6731 11.5476 26.3233 10.055 25.6331L9.6748 26.4556C11.2875 27.2014 13.013 27.5793 14.8033 27.5793C18.9081 27.5793 22.6781 25.5221 24.9383 22.14L25.2288 24.4636L26.1278 24.3512L25.6112 20.2188L21.49 21.2492Z" fill="#F4D059"/>
<path d="M5.72909 17.2627L4.84776 17.052L4.29495 19.3656C3.75301 18.0244 3.4757 16.6763 3.4757 15.345C3.4757 13.673 3.8314 12.063 4.53284 10.5591L3.71132 10.1758C2.9537 11.8007 2.56945 13.5398 2.56945 15.345C2.56945 16.7873 2.86624 18.2423 3.44624 19.6855L1.42893 18.5731L0.991211 19.367L4.73312 21.4296L5.72909 17.2627Z" fill="#F4D059"/>
<path d="M15.5069 4.99609L14.0334 4.01372H14.8023C19.0413 4.01372 22.8933 6.35094 24.8545 10.1132L25.6579 9.69409C23.5404 5.63138 19.3807 3.10747 14.8023 3.10747H14.0334L15.5069 2.12509L15.0044 1.37109L11.7197 3.56059L15.004 5.75009L15.5069 4.99609Z" fill="#F4D059"/>
</g>
<defs>
<clipPath id="clip0_1_6433">
<rect width="29" height="29" fill="white" transform="translate(0.303711 0.84375)"/>
</clipPath>
</defs>
</svg>
