<svg width="30" height="30" viewBox="0 0 30 30" fill="none" xmlns="http://www.w3.org/2000/svg">
<g clip-path="url(#clip0_1_6408)">
<path d="M19.4605 11.3478C19.0124 10.4932 17.9516 10.1616 17.0949 10.6102L10.0319 14.3156C9.17408 14.7652 8.84403 15.8228 9.29392 16.6812L13.1659 24.0632C13.6148 24.9181 14.6751 25.2499 15.5319 24.8008L22.5953 21.0958C23.4528 20.646 23.7828 19.5878 23.3329 18.7302L19.4605 11.3478ZM22.1988 20.3403L15.1354 24.0452C14.6964 24.2768 14.1521 24.1056 13.9214 23.6667L10.0494 16.2846C9.82069 15.8485 9.98305 15.3044 10.428 15.071L17.491 11.3656C17.9375 11.1326 18.478 11.3108 18.705 11.7442L22.5774 19.1266C22.8089 19.5681 22.6383 20.1098 22.1988 20.3403Z" fill="#F4D059"/>
<path d="M25.3357 14.8659L29.1867 9.84209C29.5023 9.42841 29.5534 8.88253 29.3232 8.41768C29.0971 7.95282 28.6323 7.66713 28.1162 7.66713H27.822V3.22753C27.822 2.29782 27.0671 1.54297 26.1374 1.54297H22.3973C21.4676 1.54297 20.7127 2.29782 20.7127 3.22753V7.66709H20.4185C20.3715 7.66709 20.3289 7.67131 20.282 7.67562L19.3736 5.93988C18.7723 4.8012 17.3564 4.35767 16.2177 4.959L15.4671 5.35135L14.772 4.02072C14.3412 3.2019 13.3262 2.88631 12.5074 3.31704L10.9935 4.11028C10.1192 3.21043 8.82271 2.55366 7.37698 2.30204C4.4258 1.78175 1.73051 3.0569 1.36374 5.1466C0.992715 7.23631 3.09521 9.35587 6.04213 9.87616C6.23404 9.91028 6.42169 9.9316 6.60933 9.94866L6.63066 9.98704L5.88011 10.3794C4.73713 10.9765 4.2979 12.3923 4.89496 13.5353L11.9275 26.9435C12.5384 28.1093 13.9823 28.5206 15.0833 27.9287L25.4253 22.5082C26.5627 21.9087 27.0102 20.5029 26.4061 19.3481L24.325 15.3862C24.7215 15.3649 25.0883 15.1815 25.3357 14.8659ZM5.93124 8.66076L6.12316 9.02326C3.67521 8.56694 1.91816 6.9037 2.20389 5.29165C2.48963 3.67106 4.74139 2.70297 7.22771 3.14223C8.40051 3.34694 9.45816 3.84165 10.2045 4.52404L6.63919 6.39194C5.78978 6.83952 5.5148 7.87039 5.93124 8.66076ZM25.6512 19.7447C26.0265 20.469 25.7663 21.3576 25.0286 21.7534L14.691 27.1739C13.966 27.5534 13.0661 27.2719 12.6865 26.5469L5.64977 13.1387C5.27021 12.4137 5.55168 11.5139 6.27669 11.1343L7.40257 10.5458C7.60727 10.4391 7.68404 10.1875 7.58599 9.98282C8.54129 9.95297 9.42408 9.73547 10.1533 9.36444C10.6538 9.72907 11.3558 9.83356 12.0085 9.49665C12.8719 9.04732 13.2058 7.97508 12.7548 7.10841C12.2985 6.24267 11.2281 5.91003 10.3623 6.36209C9.51791 6.80562 9.18099 7.8462 9.59467 8.69915C8.91232 9.01047 8.06364 9.16826 7.14673 9.13415L6.68614 8.26415C6.48229 7.87341 6.61965 7.36395 7.03585 7.14679L12.8998 4.07194C13.305 3.8587 13.8039 4.0165 14.0172 4.41738L14.9128 6.12326C15.0173 6.33245 15.2828 6.41377 15.4885 6.30238L16.6144 5.71385C17.3052 5.34316 18.2201 5.58429 18.6145 6.3365L19.5016 8.02959C19.0194 8.46011 18.897 9.24848 19.3437 9.84209L22.8664 14.4352L25.6512 19.7447ZM10.3324 8.25988C10.1704 7.82919 10.3452 7.33444 10.7589 7.11694C10.8953 7.04444 11.0404 7.01459 11.1811 7.01459C11.0617 7.50076 10.7632 7.92297 10.3324 8.25988ZM11.9487 7.43253C11.9658 7.45385 11.9829 7.47517 11.9999 7.50503C12.2307 7.95768 12.0553 8.51568 11.6118 8.74179C11.4114 8.84841 11.1896 8.86973 10.9721 8.81856C11.4327 8.43473 11.7696 7.96562 11.9487 7.43253ZM23.8686 14.3456L20.0218 9.32179C19.7726 8.98944 20.003 8.52003 20.4185 8.52003H21.1392C21.3737 8.52003 21.5657 8.32812 21.5657 8.09356V3.22753C21.5657 2.76694 21.941 2.39591 22.3973 2.39591H26.1374C26.598 2.39591 26.969 2.76694 26.969 3.22753V8.09356C26.969 8.32812 27.161 8.52003 27.3955 8.52003H28.1162C28.3082 8.52003 28.4745 8.62238 28.5598 8.79723C28.6451 8.97209 28.628 9.16826 28.5086 9.32179L24.6576 14.3456C24.4699 14.5887 24.0562 14.5887 23.8686 14.3456Z" fill="#F4D059"/>
<path d="M17.2859 14.338C17.0568 14.288 16.8282 14.433 16.7778 14.6628L15.5188 20.3948C15.4684 20.6251 15.6138 20.8524 15.8436 20.9029C16.0777 20.9535 16.3018 20.8051 16.3517 20.578L17.6107 14.8461C17.6611 14.6158 17.5158 14.3883 17.2859 14.338Z" fill="#F4D059"/>
<path d="M15.29 15.7419C14.9356 15.0564 14.088 14.7861 13.4009 15.1401C12.7105 15.4969 12.4434 16.342 12.7986 17.0292C13.153 17.7148 13.9988 17.9866 14.6882 17.6314C15.3785 17.2746 15.6456 16.4295 15.2904 15.7423C15.2904 15.7422 15.2904 15.7423 15.29 15.7419ZM14.2967 16.8734C14.0261 17.0139 13.6958 16.9075 13.5566 16.6377C13.4193 16.3724 13.518 16.0401 13.7923 15.898C14.0615 15.7585 14.3937 15.8661 14.5328 16.1342C14.67 16.4008 14.5699 16.732 14.2967 16.8734Z" fill="#F4D059"/>
<path d="M18.2823 17.7815C17.5959 18.1363 17.326 18.9839 17.6805 19.6702C18.0359 20.3579 18.8787 20.629 19.5696 20.2729C20.2568 19.9176 20.5266 19.0701 20.1718 18.3833C19.8169 17.6974 18.9711 17.4258 18.2823 17.7815ZM19.1781 19.5149C18.9082 19.6532 18.5786 19.5505 18.4384 19.2788C18.2993 19.0101 18.4055 18.6782 18.6741 18.5391C18.9426 18.4 19.275 18.5062 19.4138 18.7748C19.5546 19.0478 19.4463 19.3765 19.1781 19.5149Z" fill="#F4D059"/>
</g>
<defs>
<clipPath id="clip0_1_6408">
<rect width="29" height="29" fill="white" transform="translate(0.893555 0.371094)"/>
</clipPath>
</defs>
</svg>
