<svg width="80" height="80" viewBox="0 0 80 80" fill="none" xmlns="http://www.w3.org/2000/svg">
<circle opacity="0.34" cx="40.252" cy="40.3574" r="39.4004" fill="#F4D059"/>
<circle cx="40.2532" cy="40.3586" r="31.7141" fill="#F4D059"/>
<g clip-path="url(#clip0_1_5516)">
<path d="M52.0647 29.2175L48.1324 25.2853C47.8854 25.0384 47.5571 24.9023 47.2078 24.9023H30.6517C29.9308 24.9023 29.3442 25.4889 29.3442 26.2099V39.1551H28.4248C27.4582 39.1551 26.6719 39.9415 26.6719 40.908V48.9252C26.6719 49.8918 27.4582 50.6782 28.4248 50.6782H42.2322C42.9532 50.6782 43.5397 50.0916 43.5397 49.3707V43.1351C43.5397 42.4141 42.9531 41.8275 42.2322 41.8275H28.4248C27.9178 41.8275 27.5053 41.4151 27.5053 40.9081C27.5053 40.4011 27.9178 39.9886 28.4248 39.9886H29.3442V40.4629C29.3442 40.693 29.5308 40.8796 29.761 40.8796C29.9911 40.8796 30.1777 40.693 30.1777 40.4629V26.2099C30.1777 25.9484 30.3904 25.7358 30.6517 25.7358H46.7148V29.773C46.7148 30.2484 47.1015 30.6352 47.5769 30.6352H51.6142V52.0431C51.6142 52.3045 51.4015 52.5171 51.1401 52.5171H30.6517C30.3903 52.5171 30.1777 52.3045 30.1777 52.0431C30.1777 51.8129 29.9911 51.6264 29.761 51.6264C29.5308 51.6264 29.3442 51.8129 29.3442 52.0431C29.3442 52.7641 29.9308 53.3506 30.6517 53.3506H51.1401C51.8611 53.3506 52.4476 52.764 52.4476 52.0431V30.142C52.4477 29.7928 52.3117 29.4645 52.0647 29.2175ZM28.4248 42.661H42.2322C42.4936 42.661 42.7062 42.8737 42.7062 43.1351V49.3707C42.7062 49.6321 42.4935 49.8448 42.2322 49.8448H28.4248C27.9178 49.8448 27.5053 49.4323 27.5053 48.9253V42.4C27.7727 42.5655 28.0878 42.661 28.4248 42.661ZM47.5483 29.773V25.8799L51.4703 29.8018H47.5769C47.5612 29.8018 47.5483 29.7889 47.5483 29.773Z" fill="#00204A"/>
<path d="M38.4792 48.437C38.7094 48.437 38.8959 48.2504 38.8959 48.0203V46.6349H39.7989C40.029 46.6349 40.2156 46.4483 40.2156 46.2182C40.2156 45.9881 40.029 45.8015 39.7989 45.8015H38.8959V44.8999H39.9128C40.1429 44.8999 40.3295 44.7133 40.3295 44.4831C40.3295 44.2529 40.1429 44.0664 39.9128 44.0664H38.4792C38.2491 44.0664 38.0625 44.2529 38.0625 44.4831V48.0202C38.0625 48.2504 38.2491 48.437 38.4792 48.437Z" fill="#00204A"/>
<path d="M34.1008 48.2757C34.1789 48.3533 34.2845 48.3967 34.3944 48.3967H34.396C34.4256 48.3966 35.1237 48.3939 35.4026 48.389C36.4324 48.371 37.1798 47.4719 37.1798 46.2511C37.1798 44.9677 36.4512 44.1055 35.3667 44.1055H34.3874C34.2767 44.1055 34.1707 44.1495 34.0925 44.2278C34.0143 44.3062 33.9705 44.4123 33.9707 44.523V44.5257V44.5257V47.9238C33.9707 47.9524 33.9736 47.9804 33.9791 48.0074C33.9858 48.1084 34.0285 48.204 34.1008 48.2757ZM35.3667 44.9389C36.089 44.9389 36.3464 45.6167 36.3464 46.2511C36.3464 47.1408 35.8651 47.5474 35.3881 47.5557C35.2555 47.558 35.019 47.5599 34.8097 47.5612C34.8084 47.1523 34.8056 45.3642 34.8049 44.9389H35.3667Z" fill="#00204A"/>
<path d="M30.6394 48.4514C30.8695 48.4514 31.0561 48.2649 31.0561 48.0347V46.9014C31.263 46.9003 31.4983 46.8992 31.6315 46.8992C32.4266 46.8992 33.0735 46.2613 33.0735 45.477C33.0735 44.6927 32.4266 44.0547 31.6315 44.0547H30.6394C30.5286 44.0547 30.4225 44.0988 30.3442 44.1772C30.2663 44.2553 30.2227 44.3612 30.2227 44.4714H30.2227V48.0346C30.2227 48.2649 30.4092 48.4514 30.6394 48.4514ZM31.6315 44.8882C31.9614 44.8882 32.24 45.1579 32.24 45.477C32.24 45.7962 31.9614 46.0658 31.6315 46.0658C31.4992 46.0658 31.2669 46.0669 31.0607 46.068C31.0596 45.8551 31.0579 45.1109 31.0573 44.8882H31.6315V44.8882Z" fill="#00204A"/>
<path d="M38.4458 36.9861C37.4216 37.3094 36.3704 37.7568 35.8097 38.3356C35.347 38.8132 35.2632 39.3673 35.5796 39.8558C35.7943 40.1874 36.0895 40.3607 36.4215 40.3607C36.5489 40.3607 36.6817 40.3351 36.8175 40.2832C37.3071 40.096 37.836 39.5633 38.4342 38.6547C38.6274 38.3614 38.8229 38.0354 39.0175 37.6827C39.0884 37.6619 39.1606 37.6412 39.2345 37.6205C40.4106 37.2915 41.7411 37.0526 42.9088 36.9529C43.6206 37.6412 44.3564 38.1775 44.9836 38.3238C45.6736 38.4847 46.2207 38.1692 46.4467 37.4796C46.5835 37.062 46.426 36.6681 46.0251 36.4262C45.6129 36.1773 44.8967 36.0571 43.8967 36.0686C43.6837 36.071 43.4589 36.0797 43.225 36.0942C42.7758 35.6309 42.3084 35.0772 41.8583 34.4657C41.5095 33.9921 41.1978 33.5181 40.9342 33.0675C40.9629 32.9688 40.9901 32.8714 41.016 32.7757C41.3008 31.7193 41.4025 30.9104 41.318 30.3716C41.1959 29.5934 40.6937 29.4829 40.4834 29.4716C39.7675 29.4328 39.2852 29.7941 39.1935 30.4378C39.1206 30.9491 39.2926 31.6526 39.7046 32.5288C39.8025 32.737 39.9124 32.9517 40.033 33.1708C39.9881 33.3151 39.9393 33.4652 39.8865 33.6214C39.5024 34.7578 38.9821 35.9688 38.4458 36.9861ZM36.4446 39.525C36.4149 39.5287 36.3647 39.535 36.2791 39.4027C36.2093 39.2951 36.2056 39.2138 36.2651 39.1029C36.4042 38.8435 36.8792 38.4796 37.7984 38.1037C37.1568 39.0987 36.6774 39.496 36.4446 39.525ZM45.6616 37.1918C45.661 37.1969 45.6593 37.2062 45.6547 37.2202C45.5506 37.5378 45.4108 37.5677 45.1729 37.5122C44.8825 37.4445 44.5137 37.2299 44.1023 36.9016C45.2163 36.9105 45.6049 37.1112 45.6616 37.1918ZM40.0186 30.5554C40.0356 30.4363 40.0546 30.3024 40.3717 30.3024C40.3916 30.3024 40.4128 30.3029 40.4351 30.304C40.53 30.4196 40.5789 30.934 40.3593 31.9522C40.1006 31.359 39.9743 30.8663 40.0186 30.5554ZM40.5989 34.1117C40.7818 34.3928 40.9785 34.6767 41.1871 34.9599C41.4862 35.3663 41.8241 35.7882 42.1816 36.1909C41.7681 36.2408 41.3416 36.3052 40.9149 36.3827C40.6262 36.4351 40.1229 36.5339 39.5337 36.6809C39.6643 36.4099 39.7932 36.129 39.9193 35.8402C40.1699 35.2663 40.4003 34.679 40.5989 34.1117Z" fill="#00204A"/>
</g>
<defs>
<clipPath id="clip0_1_5516">
<rect width="28.4482" height="28.4482" fill="white" transform="translate(25.3359 24.9023)"/>
</clipPath>
</defs>
</svg>
